<?xml version="1.0" encoding="UTF-8" standalone="no"?>
<!-- Created with Inkscape (http://www.inkscape.org/) -->

<svg
   xmlns:dc="http://purl.org/dc/elements/1.1/"
   xmlns:cc="http://creativecommons.org/ns#"
   xmlns:rdf="http://www.w3.org/1999/02/22-rdf-syntax-ns#"
   xmlns:svg="http://www.w3.org/2000/svg"
   xmlns="http://www.w3.org/2000/svg"
   xmlns:sodipodi="http://sodipodi.sourceforge.net/DTD/sodipodi-0.dtd"
   xmlns:inkscape="http://www.inkscape.org/namespaces/inkscape"
   width="210mm"
   height="297mm"
   id="svg2"
   version="1.1"
   inkscape:version="0.48.4 r9939"
   sodipodi:docname="incremental_basic_1.svg">
  <defs
     id="defs4">
    <marker
       inkscape:stockid="Arrow1Mend"
       orient="auto"
       refY="0.0"
       refX="0.0"
       id="Arrow1Mend"
       style="overflow:visible;">
      <path
         id="path4462"
         d="M 0.0,0.0 L 5.0,-5.0 L -12.5,0.0 L 5.0,5.0 L 0.0,0.0 z "
         style="fill-rule:evenodd;stroke:#000000;stroke-width:1.0pt;"
         transform="scale(0.4) rotate(180) translate(10,0)" />
    </marker>
    <marker
       inkscape:stockid="Arrow1Lend"
       orient="auto"
       refY="0.0"
       refX="0.0"
       id="Arrow1Lend"
       style="overflow:visible;">
      <path
         id="path3769"
         d="M 0.0,0.0 L 5.0,-5.0 L -12.5,0.0 L 5.0,5.0 L 0.0,0.0 z "
         style="fill-rule:evenodd;stroke:#000000;stroke-width:1.0pt;"
         transform="scale(0.8) rotate(180) translate(12.5,0)" />
    </marker>
  </defs>
  <sodipodi:namedview
     id="base"
     pagecolor="#ffffff"
     bordercolor="#666666"
     borderopacity="1.0"
     inkscape:pageopacity="0.0"
     inkscape:pageshadow="2"
     inkscape:zoom="0.35"
     inkscape:cx="706.13853"
     inkscape:cy="379.81867"
     inkscape:document-units="px"
     inkscape:current-layer="layer1"
     showgrid="true"
     showguides="false"
     inkscape:snap-global="true"
     inkscape:window-width="1532"
     inkscape:window-height="825"
     inkscape:window-x="326"
     inkscape:window-y="101"
     inkscape:window-maximized="0"
     inkscape:guide-bbox="true">
    <inkscape:grid
       type="xygrid"
       id="grid2985" />
  </sodipodi:namedview>
  <metadata
     id="metadata7">
    <rdf:RDF>
      <cc:Work
         rdf:about="">
        <dc:format>image/svg+xml</dc:format>
        <dc:type
           rdf:resource="http://purl.org/dc/dcmitype/StillImage" />
        <dc:title />
      </cc:Work>
    </rdf:RDF>
  </metadata>
  <g
     inkscape:label="レイヤー 1"
     inkscape:groupmode="layer"
     id="layer1">
    <flowRoot
       xml:space="preserve"
       id="flowRoot3002"
       style="fill:black;stroke:none;stroke-opacity:1;stroke-width:1px;stroke-linejoin:miter;stroke-linecap:butt;fill-opacity:1;font-family:Sans;font-style:normal;font-weight:normal;font-size:40px;line-height:125%;letter-spacing:0px;word-spacing:0px"><flowRegion
         id="flowRegion3004"><rect
           id="rect3006"
           width="145.46196"
           height="49.497475"
           x="121.21831"
           y="43.219795" /></flowRegion><flowPara
         id="flowPara3008" /></flowRoot>    <flowRoot
       xml:space="preserve"
       id="flowRoot3010"
       style="fill:black;stroke:none;stroke-opacity:1;stroke-width:1px;stroke-linejoin:miter;stroke-linecap:butt;fill-opacity:1;font-family:Sans;font-style:normal;font-weight:normal;font-size:40px;line-height:125%;letter-spacing:0px;word-spacing:0px"><flowRegion
         id="flowRegion3012"><rect
           id="rect3014"
           width="129.29953"
           height="68.690376"
           x="30.304577"
           y="34.128426" /></flowRegion><flowPara
         id="flowPara3016" /></flowRoot>    <path
       style="fill:#ff6600;stroke:#000000;stroke-width:1px;stroke-linecap:butt;stroke-linejoin:miter;stroke-opacity:1"
       d="m -60,122.36218 c 0,0 17.95004,-46.31361 30,-39.999997 12.04996,6.313613 -17.453559,22.546437 -10,29.999997 7.453559,7.45356 24.750834,-18.49333 30,-10 5.249166,8.49333 -20.929022,10.61779 -20,20 1.184275,11.96001 37.271344,5.13272 30,20 -7.271344,14.86728 -60,-20 -60,-20 z"
       id="path3065"
       inkscape:connector-curvature="0"
       sodipodi:nodetypes="czzzszc" />
    <rect
       style="fill:#ff0000;fill-opacity:1;stroke:#000000;stroke-width:1;stroke-miterlimit:4;stroke-opacity:1;stroke-dasharray:none;stroke-dashoffset:0"
       id="rect3069"
       width="20"
       height="20"
       x="-70"
       y="112.36218" />
    <path
       style="fill:#ff6600;stroke:#000000;stroke-width:1px;stroke-linecap:butt;stroke-linejoin:miter;stroke-opacity:1"
       d="m 80,122.36218 c 0,0 26.05109,-59.535957 40,-54.999997 13.94891,4.53596 -7.59079,15.308637 0,20 7.59079,4.691363 22.09431,-22.905695 30,-15 5.27046,5.270462 -15.02605,11.867682 -10,20 5.02605,8.132317 31.56821,-11.334444 35,0 3.43179,11.334447 -32.63277,8.393037 -30,19.999997 2.63277,11.60696 33.39523,-7.13337 35,5 1.60477,12.13337 -32.90837,4.13905 -35,15 -2.09163,10.86095 25.02679,12.02377 20,20 -16.01982,25.41935 -85,-30 -85,-30 z"
       id="path3081"
       inkscape:connector-curvature="0"
       sodipodi:nodetypes="czzazzzzzsc" />
    <rect
       y="112.36218"
       x="70"
       height="20"
       width="20"
       id="rect3073"
       style="fill:#ff0000;fill-opacity:1;stroke:#000000;stroke-width:1;stroke-miterlimit:4;stroke-opacity:1;stroke-dasharray:none;stroke-dashoffset:0" />
    <path
       style="fill:#ff6600;stroke:#000000;stroke-width:1px;stroke-linecap:butt;stroke-linejoin:miter;stroke-opacity:1"
       d="m 460,122.36218 c 0,0 61.87977,-82.833512 80,-69.999997 18.12023,12.833515 -17.75371,17.433098 -10,25 7.75371,7.566902 27.63115,-23.441893 35,-15 7.36885,8.441893 -19.01241,14.837543 -15,25 4.01241,10.162457 33.92125,-1.606906 35,10 1.07875,11.606907 -30.35062,3.068497 -30,14.999997 0.35062,11.9315 35.48278,3.3931 35,15 -0.48278,11.6069 -27.816,-1.57476 -30,10 -2.184,11.57476 34.82573,14.47617 30,25 -4.82573,10.52383 -25.17427,-15.52383 -30,-5 -4.82573,10.52383 36.2248,4.32534 20,30 -16.2248,25.67467 -120,-65 -120,-65 z"
       id="path3087"
       inkscape:connector-curvature="0"
       sodipodi:nodetypes="czzzzzzzzzzzc" />
    <rect
       style="fill:#ff0000;fill-opacity:1;stroke:#000000;stroke-width:1;stroke-miterlimit:4;stroke-opacity:1;stroke-dasharray:none;stroke-dashoffset:0"
       id="rect3085"
       width="20"
       height="20"
       x="450"
       y="112.36218" />
    <path
       sodipodi:nodetypes="czzazzzzzsc"
       inkscape:connector-curvature="0"
       id="path4065"
       d="m 260,122.36218 c 0,0 26.05109,-59.535957 40,-54.999997 13.94891,4.53596 -7.59079,15.308637 0,20 7.59079,4.691363 22.09431,-22.905695 30,-15 5.27046,5.270462 -15.02605,11.867682 -10,20 5.02605,8.132317 31.56821,-11.334444 35,0 3.43179,11.334447 -32.63277,8.393037 -30,19.999997 2.63277,11.60696 33.39523,-7.13337 35,5 1.60477,12.13337 -32.90837,4.13905 -35,15 -2.09163,10.86095 25.02679,12.02377 20,20 -16.01982,25.41935 -85,-30 -85,-30 z"
       style="fill:#ff6600;stroke:#000000;stroke-width:1px;stroke-linecap:butt;stroke-linejoin:miter;stroke-opacity:1" />
    <rect
       style="fill:#ff0000;fill-opacity:1;stroke:#000000;stroke-width:1;stroke-miterlimit:4;stroke-opacity:1;stroke-dasharray:none;stroke-dashoffset:0"
       id="rect4067"
       width="20"
       height="20"
       x="250"
       y="112.36218" />
    <path
       inkscape:connector-curvature="0"
       id="path4069"
       d="m 190,117.36218 40,0"
       style="fill:none;stroke:#000000;stroke-width:1px;stroke-linecap:butt;stroke-linejoin:miter;stroke-opacity:1;marker-end:url(#Arrow1Lend)" />
    <path
       style="fill:none;stroke:#ff6600;stroke-width:2;stroke-linecap:butt;stroke-linejoin:miter;stroke-opacity:1;marker-end:url(#Arrow1Mend);stroke-miterlimit:4;stroke-dasharray:none"
       d="m 9.4175742,122.28421 c 0,0 1.8063808,-11.18409 7.0893458,-10.63402 5.282964,0.55007 0.726463,17.72337 7.089345,17.72337 6.362883,0 0.726463,-17.72337 7.089346,-17.72337 6.362883,0 2.041877,17.87169 7.089346,17.72337 5.047468,-0.14833 0.202723,-5.41837 3.544672,-7.08935 3.34195,-1.67097 14.178692,-3.54467 14.178692,-3.54467"
       id="path4083"
       inkscape:connector-curvature="0"
       sodipodi:nodetypes="czzzzzc" />
    <text
       sodipodi:linespacing="125%"
       id="text5451"
       y="57.362183"
       x="-10"
       style="font-size:40px;font-style:normal;font-weight:normal;line-height:125%;letter-spacing:0px;word-spacing:0px;fill:#ff6600;fill-opacity:1;stroke:none;font-family:Sans"
       xml:space="preserve"><tspan
         style="font-size:24px;fill:#ff6600"
         y="57.362183"
         x="-10"
         id="tspan5453"
         sodipodi:role="line">collector</tspan></text>
    <path
       sodipodi:nodetypes="czzzzzc"
       inkscape:connector-curvature="0"
       id="path5455"
       d="m 383.41757,122.28421 c 0,0 1.80639,-11.18409 7.08935,-10.63402 5.28296,0.55007 0.72646,17.72337 7.08935,17.72337 6.36288,0 0.72646,-17.72337 7.08934,-17.72337 6.36288,0 2.04188,17.87169 7.08935,17.72337 5.04747,-0.14833 0.20272,-5.41837 3.54467,-7.08935 3.34195,-1.67097 14.17869,-3.54467 14.17869,-3.54467"
       style="fill:none;stroke:#ff6600;stroke-width:2;stroke-linecap:butt;stroke-linejoin:miter;stroke-miterlimit:4;stroke-opacity:1;stroke-dasharray:none;marker-end:url(#Arrow1Mend)" />
    <text
       xml:space="preserve"
       style="font-size:40px;font-style:normal;font-weight:normal;line-height:125%;letter-spacing:0px;word-spacing:0px;fill:#ff6600;fill-opacity:1;stroke:none;font-family:Sans"
       x="370"
       y="57.362183"
       id="text5467"
       sodipodi:linespacing="125%"><tspan
         sodipodi:role="line"
         id="tspan5469"
         x="370"
         y="57.362183"
         style="font-size:24px;fill:#ff6600">collector</tspan></text>
    <text
       sodipodi:linespacing="125%"
       id="text5475"
       y="77.362183"
       x="170"
       style="font-size:40px;font-style:normal;font-weight:normal;line-height:125%;letter-spacing:0px;word-spacing:0px;fill:#000000;fill-opacity:1;stroke:none;font-family:Sans"
       xml:space="preserve"><tspan
         style="font-size:24px"
         y="77.362183"
         x="170"
         id="tspan5477"
         sodipodi:role="line">mutator</tspan></text>
  </g>
</svg>
