<?xml version="1.0" encoding="UTF-8" standalone="no"?>
<!-- Created with Inkscape (http://www.inkscape.org/) -->

<svg
   width="183.09167mm"
   height="105.74738mm"
   id="svg2"
   version="1.1"
   xmlns="http://www.w3.org/2000/svg"
   xmlns:svg="http://www.w3.org/2000/svg"
   xmlns:rdf="http://www.w3.org/1999/02/22-rdf-syntax-ns#"
   xmlns:cc="http://creativecommons.org/ns#"
   xmlns:dc="http://purl.org/dc/elements/1.1/">
  <defs
     id="defs4">
    <marker
       orient="auto"
       refY="0"
       refX="0"
       id="Arrow1Lend"
       style="overflow:visible">
      <path
         id="path3769"
         d="M 0,0 5,-5 -12.5,0 5,5 Z"
         style="fill-rule:evenodd;stroke:#000000;stroke-width:1pt"
         transform="matrix(-0.8,0,0,-0.8,-10,0)" />
    </marker>
  </defs>
  <metadata
     id="metadata7">
    <rdf:RDF>
      <cc:Work
         rdf:about="">
        <dc:format>image/svg+xml</dc:format>
        <dc:type
           rdf:resource="http://purl.org/dc/dcmitype/StillImage" />
        <dc:title />
      </cc:Work>
    </rdf:RDF>
  </metadata>
  <g
     id="layer1"
     transform="translate(-18.999998,18.236818)">
    <rect
       style="fill:#ffffff;fill-opacity:1;stroke:#ffffff;stroke-width:1.92365;stroke-miterlimit:4;stroke-dasharray:none;stroke-dashoffset:0;stroke-opacity:1"
       id="rect9142"
       width="690.07635"
       height="397.7515"
       x="19.961823"
       y="-17.274994" />
    <rect
       style="fill:#ffffff;fill-opacity:1;stroke:#000000;stroke-width:3;stroke-miterlimit:4;stroke-dasharray:none;stroke-dashoffset:0;stroke-opacity:1"
       id="rect3043"
       width="660"
       height="340"
       x="30"
       y="32.362183" />
    <flowRoot
       xml:space="preserve"
       id="flowRoot3002"
       style="font-style:normal;font-weight:normal;line-height:0.01%;font-family:sans-serif;letter-spacing:0px;word-spacing:0px;fill:#000000;fill-opacity:1;stroke:none;stroke-width:1px;stroke-linecap:butt;stroke-linejoin:miter;stroke-opacity:1"><flowRegion
         id="flowRegion3004"
         style="font-family:sans-serif"><rect
           id="rect3006"
           width="145.46196"
           height="49.497475"
           x="121.21831"
           y="43.219795" /></flowRegion><flowPara
         id="flowPara3008"
         style="font-size:40px;line-height:1.25;font-family:sans-serif"> </flowPara></flowRoot>
    <flowRoot
       xml:space="preserve"
       id="flowRoot3010"
       style="font-style:normal;font-weight:normal;line-height:0.01%;font-family:sans-serif;letter-spacing:0px;word-spacing:0px;fill:#000000;fill-opacity:1;stroke:none;stroke-width:1px;stroke-linecap:butt;stroke-linejoin:miter;stroke-opacity:1"><flowRegion
         id="flowRegion3012"
         style="font-family:sans-serif"><rect
           id="rect3014"
           width="129.29953"
           height="68.690376"
           x="30.304577"
           y="34.128426" /></flowRegion><flowPara
         id="flowPara3016"
         style="font-size:40px;line-height:1.25;font-family:sans-serif"> </flowPara></flowRoot>
    <rect
       style="fill:#ff0000;fill-opacity:1;stroke:#ff0000;stroke-width:3;stroke-miterlimit:4;stroke-dasharray:none;stroke-dashoffset:0;stroke-opacity:1"
       id="rect3037"
       width="40"
       height="70"
       x="30"
       y="142.36218" />
    <path
       style="fill:#ff6600;stroke:#000000;stroke-width:1px;stroke-linecap:butt;stroke-linejoin:miter;stroke-opacity:1"
       d="m 70,152.36218 c 0,0 23.303949,8.14099 60,0 36.69605,-8.14099 124.70718,-106.110553 150,-70 25.29282,36.11056 -78.48336,12.59737 -60,50 18.48336,37.40264 130.02049,-50.11082 140,0 9.97951,50.11083 -102.57857,-17.72559 -100,30 2.57857,47.7256 82.0213,-16.93357 80,30 -2.0213,46.93357 -81.50788,-9.72141 -90,40 -8.49212,49.72142 93.01778,-15.48116 80,30 -13.01778,45.48116 -95.04147,-35.57098 -110,0 -14.95853,35.57098 79.01866,6.71735 60,40 -19.01866,33.28265 -73.1575,-53.09487 -100,-30 -26.8425,23.09487 30.15685,50.24866 0,60 -30.15685,9.75134 0.0448,-81.53673 -30,-80 -30.04479,1.53673 -3.28742,55.26152 -30,50 -26.71258,-5.26152 25.21864,-69.87643 10,-90 -15.21864,-20.12357 -60,-10 -60,-10"
       id="path3041" />
    <rect
       style="opacity:0.798354;fill:#ffffff;fill-opacity:1;stroke:#ffffff;stroke-width:2.92077;stroke-miterlimit:4;stroke-dasharray:none;stroke-dashoffset:0;stroke-opacity:1"
       id="rect3021"
       width="217.9574"
       height="320.07922"
       x="72.082214"
       y="42.322567" />
    <rect
       style="opacity:1;fill:#ff6600;fill-opacity:1;stroke:#ff6600;stroke-width:3;stroke-miterlimit:4;stroke-dasharray:none;stroke-dashoffset:0;stroke-opacity:1"
       id="rect4207"
       width="10"
       height="10"
       x="280"
       y="132.36218" />
    <rect
       y="183.08681"
       x="280.72464"
       height="25.723341"
       width="8.5507479"
       id="rect4723"
       style="fill:#ff6600;fill-opacity:1;stroke:#ff6600;stroke-width:4.44925;stroke-miterlimit:4;stroke-dasharray:none;stroke-dashoffset:0;stroke-opacity:1" />
    <rect
       style="fill:#ff6600;fill-opacity:1;stroke:#ff6600;stroke-width:4.02729;stroke-miterlimit:4;stroke-dasharray:none;stroke-dashoffset:0;stroke-opacity:1"
       id="rect4725"
       width="8.9727135"
       height="20.084391"
       x="280.51367"
       y="250.87581" />
    <rect
       y="334.95782"
       x="-305.40436"
       height="20.084391"
       width="8.9727135"
       id="rect4727"
       style="fill:#ff6600;fill-opacity:1;stroke:#ff6600;stroke-width:4.02729;stroke-miterlimit:4;stroke-dasharray:none;stroke-dashoffset:0;stroke-opacity:1"
       transform="rotate(-90)" />
    <rect
       transform="rotate(-90)"
       style="fill:#ff6600;fill-opacity:1;stroke:#ff6600;stroke-width:4.02729;stroke-miterlimit:4;stroke-dasharray:none;stroke-dashoffset:0;stroke-opacity:1"
       id="rect4729"
       width="8.9727135"
       height="20.084391"
       x="-305.40436"
       y="454.95782" />
    <rect
       y="574.95782"
       x="-305.40436"
       height="20.084391"
       width="8.9727135"
       id="rect4731"
       style="fill:#ff6600;fill-opacity:1;stroke:#ff6600;stroke-width:4.02729;stroke-miterlimit:4;stroke-dasharray:none;stroke-dashoffset:0;stroke-opacity:1"
       transform="rotate(-90)" />
    <rect
       y="53.619926"
       x="280.40063"
       height="17.453299"
       width="9.1987638"
       id="rect4733"
       style="fill:#ff6600;fill-opacity:1;stroke:#ff6600;stroke-width:3.80124;stroke-miterlimit:4;stroke-dasharray:none;stroke-dashoffset:0;stroke-opacity:1" />
    <path
       style="fill:#ff6600;stroke:#000000;stroke-width:1px;stroke-linecap:butt;stroke-linejoin:miter;stroke-opacity:1"
       d="m 330,297.36218 c 0,0 1.73263,-18.36815 10,-25 8.26737,-6.63185 32.88665,-21.33291 40,-10 7.11335,11.33291 -25,35 -25,35"
       id="path4741" />
    <path
       style="fill:#ff6600;stroke:#000000;stroke-width:1px;stroke-linecap:butt;stroke-linejoin:miter;stroke-opacity:1"
       d="m 455,297.36218 c 0,0 2.99062,-14.41198 0,-20 -2.99062,-5.58802 -13.72041,-1.75818 -15,-10 -1.27959,-8.24182 11.66728,-25.36161 20,-25 8.33272,0.36161 4.41198,12.00938 10,15 5.58802,2.99062 15.96358,-7.12908 20,0 4.03642,7.12908 -13.0356,17.9079 -15,25 -1.9644,7.0921 0,15 0,15"
       id="path4743" />
    <path
       id="path4745"
       d="m 595.52712,297.36218 c 0,0 -2.99062,-14.41198 0,-20 2.99062,-5.58802 13.72041,-1.75818 15,-10 1.27959,-8.24182 -11.66728,-25.36161 -20,-25 -8.33272,0.36161 -4.41198,12.00938 -10,15 -5.58802,2.99062 -15.96358,-7.12908 -20,0 -4.03642,7.12908 13.0356,17.9079 15,25 1.9644,7.0921 0,15 0,15"
       style="fill:#ff6600;stroke:#000000;stroke-width:1px;stroke-linecap:butt;stroke-linejoin:miter;stroke-opacity:1" />
    <path
       id="path4747"
       d="m 292.04646,52.810086 c 0,0 14.41198,2.99062 20,0 5.58802,-2.99062 9.71172,-4.168313 17.95354,-5.447903 8.24182,-1.27959 20.36161,16.66728 20,25 -0.36161,8.33272 2.99062,19.41198 0,25 -2.99062,5.588017 -12.87092,-24.03642 -20,-20 -7.12908,4.03642 -15.86144,-2.587697 -22.95354,-4.552097 -7.0921,-1.9644 -15,0 -15,0"
       style="fill:#ff6600;stroke:#000000;stroke-width:1px;stroke-linecap:butt;stroke-linejoin:miter;stroke-opacity:1" />
    <rect
       style="fill:none;stroke:#000000;stroke-width:3.454;stroke-miterlimit:4;stroke-dasharray:none;stroke-dashoffset:0;stroke-opacity:1"
       id="rect3082"
       width="359.54599"
       height="252.17546"
       x="290.22699"
       y="43.599331" />
  </g>
</svg>
