<?xml version="1.0" encoding="UTF-8" standalone="no"?>
<!-- Created with Inkscape (http://www.inkscape.org/) -->

<svg
   xmlns:dc="http://purl.org/dc/elements/1.1/"
   xmlns:cc="http://creativecommons.org/ns#"
   xmlns:rdf="http://www.w3.org/1999/02/22-rdf-syntax-ns#"
   xmlns:svg="http://www.w3.org/2000/svg"
   xmlns="http://www.w3.org/2000/svg"
   xmlns:sodipodi="http://sodipodi.sourceforge.net/DTD/sodipodi-0.dtd"
   xmlns:inkscape="http://www.inkscape.org/namespaces/inkscape"
   width="210mm"
   height="297mm"
   id="svg2"
   version="1.1"
   inkscape:version="0.48.4 r9939"
   sodipodi:docname="incremental_basic.svg">
  <defs
     id="defs4">
    <marker
       inkscape:stockid="Arrow1Mend"
       orient="auto"
       refY="0.0"
       refX="0.0"
       id="Arrow1Mend"
       style="overflow:visible;">
      <path
         id="path4462"
         d="M 0.0,0.0 L 5.0,-5.0 L -12.5,0.0 L 5.0,5.0 L 0.0,0.0 z "
         style="fill-rule:evenodd;stroke:#000000;stroke-width:1.0pt;"
         transform="scale(0.4) rotate(180) translate(10,0)" />
    </marker>
    <marker
       inkscape:stockid="Arrow1Lend"
       orient="auto"
       refY="0.0"
       refX="0.0"
       id="Arrow1Lend"
       style="overflow:visible;">
      <path
         id="path3769"
         d="M 0.0,0.0 L 5.0,-5.0 L -12.5,0.0 L 5.0,5.0 L 0.0,0.0 z "
         style="fill-rule:evenodd;stroke:#000000;stroke-width:1.0pt;"
         transform="scale(0.8) rotate(180) translate(12.5,0)" />
    </marker>
  </defs>
  <sodipodi:namedview
     id="base"
     pagecolor="#ffffff"
     bordercolor="#666666"
     borderopacity="1.0"
     inkscape:pageopacity="0.0"
     inkscape:pageshadow="2"
     inkscape:zoom="0.49497475"
     inkscape:cx="-159.89155"
     inkscape:cy="722.67581"
     inkscape:document-units="px"
     inkscape:current-layer="layer1"
     showgrid="true"
     showguides="false"
     inkscape:snap-global="true"
     inkscape:window-width="1532"
     inkscape:window-height="825"
     inkscape:window-x="68"
     inkscape:window-y="47"
     inkscape:window-maximized="0"
     inkscape:guide-bbox="true">
    <inkscape:grid
       type="xygrid"
       id="grid2985" />
  </sodipodi:namedview>
  <metadata
     id="metadata7">
    <rdf:RDF>
      <cc:Work
         rdf:about="">
        <dc:format>image/svg+xml</dc:format>
        <dc:type
           rdf:resource="http://purl.org/dc/dcmitype/StillImage" />
        <dc:title />
      </cc:Work>
    </rdf:RDF>
  </metadata>
  <g
     inkscape:label="レイヤー 1"
     inkscape:groupmode="layer"
     id="layer1">
    <flowRoot
       xml:space="preserve"
       id="flowRoot3002"
       style="fill:black;stroke:none;stroke-opacity:1;stroke-width:1px;stroke-linejoin:miter;stroke-linecap:butt;fill-opacity:1;font-family:Sans;font-style:normal;font-weight:normal;font-size:40px;line-height:125%;letter-spacing:0px;word-spacing:0px"><flowRegion
         id="flowRegion3004"><rect
           id="rect3006"
           width="145.46196"
           height="49.497475"
           x="121.21831"
           y="43.219795" /></flowRegion><flowPara
         id="flowPara3008" /></flowRoot>    <flowRoot
       xml:space="preserve"
       id="flowRoot3010"
       style="fill:black;stroke:none;stroke-opacity:1;stroke-width:1px;stroke-linejoin:miter;stroke-linecap:butt;fill-opacity:1;font-family:Sans;font-style:normal;font-weight:normal;font-size:40px;line-height:125%;letter-spacing:0px;word-spacing:0px"><flowRegion
         id="flowRegion3012"><rect
           id="rect3014"
           width="129.29953"
           height="68.690376"
           x="30.304577"
           y="34.128426" /></flowRegion><flowPara
         id="flowPara3016" /></flowRoot>    <path
       style="fill:#ff6600;stroke:#000000;stroke-width:1px;stroke-linecap:butt;stroke-linejoin:miter;stroke-opacity:1"
       d="m -60,122.36218 c 0,0 17.95004,-46.31361 30,-39.999997 12.04996,6.313613 -17.453559,22.546437 -10,29.999997 7.453559,7.45356 24.750834,-18.49333 30,-10 5.249166,8.49333 -20.929022,10.61779 -20,20 1.184275,11.96001 37.271344,5.13272 30,20 -7.271344,14.86728 -60,-20 -60,-20 z"
       id="path3065"
       inkscape:connector-curvature="0"
       sodipodi:nodetypes="czzzszc" />
    <rect
       style="fill:#ff0000;fill-opacity:1;stroke:#000000;stroke-width:1;stroke-miterlimit:4;stroke-opacity:1;stroke-dasharray:none;stroke-dashoffset:0"
       id="rect3069"
       width="20"
       height="20"
       x="-70"
       y="112.36218" />
    <path
       style="fill:#ff6600;stroke:#000000;stroke-width:1px;stroke-linecap:butt;stroke-linejoin:miter;stroke-opacity:1"
       d="m 80,122.36218 c 0,0 26.05109,-59.535957 40,-54.999997 13.94891,4.53596 -7.59079,15.308637 0,20 7.59079,4.691363 22.09431,-22.905695 30,-15 5.27046,5.270462 -15.02605,11.867682 -10,20 5.02605,8.132317 31.56821,-11.334444 35,0 3.43179,11.334447 -32.63277,8.393037 -30,19.999997 2.63277,11.60696 33.39523,-7.13337 35,5 1.60477,12.13337 -32.90837,4.13905 -35,15 -2.09163,10.86095 25.02679,12.02377 20,20 -16.01982,25.41935 -85,-30 -85,-30 z"
       id="path3081"
       inkscape:connector-curvature="0"
       sodipodi:nodetypes="czzazzzzzsc" />
    <rect
       y="112.36218"
       x="70"
       height="20"
       width="20"
       id="rect3073"
       style="fill:#ff0000;fill-opacity:1;stroke:#000000;stroke-width:1;stroke-miterlimit:4;stroke-opacity:1;stroke-dasharray:none;stroke-dashoffset:0" />
    <path
       style="fill:#ff6600;stroke:#000000;stroke-width:1px;stroke-linecap:butt;stroke-linejoin:miter;stroke-opacity:1"
       d="m 460,122.36218 c 0,0 61.87977,-82.833512 80,-69.999997 18.12023,12.833515 -17.75371,17.433098 -10,25 7.75371,7.566902 27.63115,-23.441893 35,-15 7.36885,8.441893 -19.01241,14.837543 -15,25 4.01241,10.162457 33.92125,-1.606906 35,10 1.07875,11.606907 -30.35062,3.068497 -30,14.999997 0.35062,11.9315 35.48278,3.3931 35,15 -0.48278,11.6069 -27.816,-1.57476 -30,10 -2.184,11.57476 34.82573,14.47617 30,25 -4.82573,10.52383 -25.17427,-15.52383 -30,-5 -4.82573,10.52383 36.2248,4.32534 20,30 -16.2248,25.67467 -120,-65 -120,-65 z"
       id="path3087"
       inkscape:connector-curvature="0"
       sodipodi:nodetypes="czzzzzzzzzzzc" />
    <rect
       style="fill:#ff0000;fill-opacity:1;stroke:#000000;stroke-width:1;stroke-miterlimit:4;stroke-opacity:1;stroke-dasharray:none;stroke-dashoffset:0"
       id="rect3085"
       width="20"
       height="20"
       x="450"
       y="112.36218" />
    <path
       sodipodi:nodetypes="czzzzzzzzzzzc"
       inkscape:connector-curvature="0"
       id="path3089"
       d="m 900,122.36218 c 0,0 91.8798,-107.833512 110,-94.999997 18.1202,12.833515 -12.7537,12.433098 -5,20 7.7537,7.566902 32.6312,-8.441893 40,0 7.3688,8.441893 -24.0124,14.837543 -20,25 4.0124,10.162457 28.9212,-6.606906 30,5 1.0788,11.606907 -25.3506,8.0685 -25,20 0.3506,11.931497 50.4828,3.393107 50,14.999997 -0.4828,11.6069 -27.816,3.42524 -30,15 -2.184,11.57476 54.8257,19.47617 50,30 -4.8257,10.52383 -45.1743,-0.52383 -50,10 -4.8257,10.52383 46.2248,4.32534 30,30 -16.2248,25.67467 -180,-75 -180,-75 z"
       style="fill:#ff6600;stroke:#000000;stroke-width:1px;stroke-linecap:butt;stroke-linejoin:miter;stroke-opacity:1" />
    <rect
       y="112.36218"
       x="890"
       height="20"
       width="20"
       id="rect3091"
       style="fill:#ff0000;fill-opacity:1;stroke:#000000;stroke-width:1;stroke-miterlimit:4;stroke-opacity:1;stroke-dasharray:none;stroke-dashoffset:0" />
    <text
       xml:space="preserve"
       style="font-size:40px;font-style:normal;font-weight:normal;line-height:125%;letter-spacing:0px;word-spacing:0px;fill:#000000;fill-opacity:1;stroke:none;font-family:Sans"
       x="-150"
       y="77.362183"
       id="text4055"
       sodipodi:linespacing="125%"><tspan
         sodipodi:role="line"
         id="tspan4057"
         x="-150"
         y="77.362183"
         style="font-size:24px">mutator</tspan></text>
    <path
       sodipodi:nodetypes="czzzszc"
       inkscape:connector-curvature="0"
       id="path4059"
       d="m -200,122.36218 c 0,0 17.95004,-46.31361 30,-39.999997 12.04996,6.313613 -17.45356,22.546437 -10,29.999997 7.45356,7.45356 24.75083,-18.49333 30,-10 5.24917,8.49333 -20.92902,10.61779 -20,20 1.18427,11.96001 37.27134,5.13272 30,20 -7.27134,14.86728 -60,-20 -60,-20 z"
       style="fill:#ff6600;stroke:#000000;stroke-width:1px;stroke-linecap:butt;stroke-linejoin:miter;stroke-opacity:1" />
    <rect
       y="112.36218"
       x="-210"
       height="20"
       width="20"
       id="rect4061"
       style="fill:#ff0000;fill-opacity:1;stroke:#000000;stroke-width:1;stroke-miterlimit:4;stroke-opacity:1;stroke-dasharray:none;stroke-dashoffset:0" />
    <path
       inkscape:connector-curvature="0"
       id="path4063"
       d="m -130,117.36218 40,0"
       style="fill:none;stroke:#000000;stroke-width:1px;stroke-linecap:butt;stroke-linejoin:miter;stroke-opacity:1;marker-end:url(#Arrow1Lend)" />
    <path
       sodipodi:nodetypes="czzazzzzzsc"
       inkscape:connector-curvature="0"
       id="path4065"
       d="m 260,122.36218 c 0,0 26.05109,-59.535957 40,-54.999997 13.94891,4.53596 -7.59079,15.308637 0,20 7.59079,4.691363 22.09431,-22.905695 30,-15 5.27046,5.270462 -15.02605,11.867682 -10,20 5.02605,8.132317 31.56821,-11.334444 35,0 3.43179,11.334447 -32.63277,8.393037 -30,19.999997 2.63277,11.60696 33.39523,-7.13337 35,5 1.60477,12.13337 -32.90837,4.13905 -35,15 -2.09163,10.86095 25.02679,12.02377 20,20 -16.01982,25.41935 -85,-30 -85,-30 z"
       style="fill:#ff6600;stroke:#000000;stroke-width:1px;stroke-linecap:butt;stroke-linejoin:miter;stroke-opacity:1" />
    <rect
       style="fill:#ff0000;fill-opacity:1;stroke:#000000;stroke-width:1;stroke-miterlimit:4;stroke-opacity:1;stroke-dasharray:none;stroke-dashoffset:0"
       id="rect4067"
       width="20"
       height="20"
       x="250"
       y="112.36218" />
    <path
       inkscape:connector-curvature="0"
       id="path4069"
       d="m 190,117.36218 40,0"
       style="fill:none;stroke:#000000;stroke-width:1px;stroke-linecap:butt;stroke-linejoin:miter;stroke-opacity:1;marker-end:url(#Arrow1Lend)" />
    <path
       sodipodi:nodetypes="czzzzzzzzzzzc"
       inkscape:connector-curvature="0"
       id="path4071"
       d="m 672,122.36218 c 0,0 61.87977,-82.833512 80,-69.999997 18.12023,12.833515 -17.75371,17.433098 -10,25 7.75371,7.566902 27.63115,-23.441893 35,-15 7.36885,8.441893 -19.01241,14.837543 -15,25 4.01241,10.162457 33.92125,-1.606906 35,10 1.07875,11.606907 -30.35062,3.068497 -30,14.999997 0.35062,11.9315 35.48278,3.3931 35,15 -0.48278,11.6069 -27.816,-1.57476 -30,10 -2.184,11.57476 34.82573,14.47617 30,25 -4.82573,10.52383 -25.17427,-15.52383 -30,-5 -4.82573,10.52383 36.2248,4.32534 20,30 -16.2248,25.67467 -120,-65 -120,-65 z"
       style="fill:#ff6600;stroke:#000000;stroke-width:1px;stroke-linecap:butt;stroke-linejoin:miter;stroke-opacity:1" />
    <rect
       y="112.36218"
       x="662"
       height="20"
       width="20"
       id="rect4073"
       style="fill:#ff0000;fill-opacity:1;stroke:#000000;stroke-width:1;stroke-miterlimit:4;stroke-opacity:1;stroke-dasharray:none;stroke-dashoffset:0" />
    <path
       style="fill:none;stroke:#000000;stroke-width:1px;stroke-linecap:butt;stroke-linejoin:miter;stroke-opacity:1;marker-end:url(#Arrow1Lend)"
       d="m 602,117.36218 40,0"
       id="path4075"
       inkscape:connector-curvature="0" />
    <path
       style="fill:none;stroke:#ff6600;stroke-width:2;stroke-linecap:butt;stroke-linejoin:miter;stroke-opacity:1;marker-end:url(#Arrow1Mend);stroke-miterlimit:4;stroke-dasharray:none"
       d="m 9.4175742,122.28421 c 0,0 1.8063808,-11.18409 7.0893458,-10.63402 5.282964,0.55007 0.726463,17.72337 7.089345,17.72337 6.362883,0 0.726463,-17.72337 7.089346,-17.72337 6.362883,0 2.041877,17.87169 7.089346,17.72337 5.047468,-0.14833 0.202723,-5.41837 3.544672,-7.08935 3.34195,-1.67097 14.178692,-3.54467 14.178692,-3.54467"
       id="path4083"
       inkscape:connector-curvature="0"
       sodipodi:nodetypes="czzzzzc" />
    <text
       sodipodi:linespacing="125%"
       id="text5451"
       y="57.362183"
       x="-10"
       style="font-size:40px;font-style:normal;font-weight:normal;line-height:125%;letter-spacing:0px;word-spacing:0px;fill:#ff6600;fill-opacity:1;stroke:none;font-family:Sans"
       xml:space="preserve"><tspan
         style="font-size:24px;fill:#ff6600"
         y="57.362183"
         x="-10"
         id="tspan5453"
         sodipodi:role="line">collector</tspan></text>
    <path
       sodipodi:nodetypes="czzzzzc"
       inkscape:connector-curvature="0"
       id="path5455"
       d="m 383.41757,122.28421 c 0,0 1.80639,-11.18409 7.08935,-10.63402 5.28296,0.55007 0.72646,17.72337 7.08935,17.72337 6.36288,0 0.72646,-17.72337 7.08934,-17.72337 6.36288,0 2.04188,17.87169 7.08935,17.72337 5.04747,-0.14833 0.20272,-5.41837 3.54467,-7.08935 3.34195,-1.67097 14.17869,-3.54467 14.17869,-3.54467"
       style="fill:none;stroke:#ff6600;stroke-width:2;stroke-linecap:butt;stroke-linejoin:miter;stroke-miterlimit:4;stroke-opacity:1;stroke-dasharray:none;marker-end:url(#Arrow1Mend)" />
    <path
       style="fill:none;stroke:#ff6600;stroke-width:2;stroke-linecap:butt;stroke-linejoin:miter;stroke-miterlimit:4;stroke-opacity:1;stroke-dasharray:none;marker-end:url(#Arrow1Mend)"
       d="m 823.41757,122.28421 c 0,0 1.80639,-11.18409 7.08935,-10.63402 5.28296,0.55007 0.72646,17.72337 7.08935,17.72337 6.36288,0 0.72646,-17.72337 7.08934,-17.72337 6.36288,0 2.04188,17.87169 7.08935,17.72337 5.04747,-0.14833 0.20272,-5.41837 3.54467,-7.08935 3.34195,-1.67097 14.17869,-3.54467 14.17869,-3.54467"
       id="path5457"
       inkscape:connector-curvature="0"
       sodipodi:nodetypes="czzzzzc" />
    <path
       sodipodi:nodetypes="czzzzzc"
       inkscape:connector-curvature="0"
       id="path5459"
       d="m -270.58243,122.28421 c 0,0 1.80639,-11.18409 7.08935,-10.63402 5.28296,0.55007 0.72646,17.72337 7.08934,17.72337 6.36289,0 0.72647,-17.72337 7.08935,-17.72337 6.36288,0 2.04188,17.87169 7.08935,17.72337 5.04746,-0.14833 0.20272,-5.41837 3.54467,-7.08935 3.34195,-1.67097 14.17869,-3.54467 14.17869,-3.54467"
       style="fill:none;stroke:#ff6600;stroke-width:2;stroke-linecap:butt;stroke-linejoin:miter;stroke-miterlimit:4;stroke-opacity:1;stroke-dasharray:none;marker-end:url(#Arrow1Mend)" />
    <text
       xml:space="preserve"
       style="font-size:40px;font-style:normal;font-weight:normal;line-height:125%;letter-spacing:0px;word-spacing:0px;fill:#ff6600;fill-opacity:1;stroke:none;font-family:Sans"
       x="-290"
       y="57.362183"
       id="text5461"
       sodipodi:linespacing="125%"><tspan
         sodipodi:role="line"
         id="tspan5463"
         x="-290"
         y="57.362183"
         style="font-size:24px;fill:#ff6600">collector</tspan></text>
    <rect
       style="fill:#ff0000;fill-opacity:1;stroke:#000000;stroke-width:1;stroke-miterlimit:4;stroke-opacity:1;stroke-dasharray:none;stroke-dashoffset:0"
       id="rect5465"
       width="20"
       height="20"
       x="-330"
       y="112.36218" />
    <text
       xml:space="preserve"
       style="font-size:40px;font-style:normal;font-weight:normal;line-height:125%;letter-spacing:0px;word-spacing:0px;fill:#ff6600;fill-opacity:1;stroke:none;font-family:Sans"
       x="370"
       y="57.362183"
       id="text5467"
       sodipodi:linespacing="125%"><tspan
         sodipodi:role="line"
         id="tspan5469"
         x="370"
         y="57.362183"
         style="font-size:24px;fill:#ff6600">collector</tspan></text>
    <text
       sodipodi:linespacing="125%"
       id="text5471"
       y="57.362183"
       x="810"
       style="font-size:40px;font-style:normal;font-weight:normal;line-height:125%;letter-spacing:0px;word-spacing:0px;fill:#ff6600;fill-opacity:1;stroke:none;font-family:Sans"
       xml:space="preserve"><tspan
         style="font-size:24px;fill:#ff6600"
         y="57.362183"
         x="810"
         id="tspan5473"
         sodipodi:role="line">collector</tspan></text>
    <text
       sodipodi:linespacing="125%"
       id="text5475"
       y="77.362183"
       x="170"
       style="font-size:40px;font-style:normal;font-weight:normal;line-height:125%;letter-spacing:0px;word-spacing:0px;fill:#000000;fill-opacity:1;stroke:none;font-family:Sans"
       xml:space="preserve"><tspan
         style="font-size:24px"
         y="77.362183"
         x="170"
         id="tspan5477"
         sodipodi:role="line">mutator</tspan></text>
    <text
       xml:space="preserve"
       style="font-size:40px;font-style:normal;font-weight:normal;line-height:125%;letter-spacing:0px;word-spacing:0px;fill:#000000;fill-opacity:1;stroke:none;font-family:Sans"
       x="590"
       y="77.362183"
       id="text5479"
       sodipodi:linespacing="125%"><tspan
         sodipodi:role="line"
         id="tspan5481"
         x="590"
         y="77.362183"
         style="font-size:24px">mutator</tspan></text>
    <rect
       style="fill:#ff6600;fill-opacity:1;stroke:#000000;stroke-width:2.5;stroke-miterlimit:4;stroke-opacity:1;stroke-dasharray:none;stroke-dashoffset:0"
       id="rect5648"
       width="60"
       height="40"
       x="-300"
       y="212.36218" />
    <rect
       style="fill:#ffffff;fill-opacity:1;stroke:#000000;stroke-width:2.5;stroke-miterlimit:4;stroke-opacity:1;stroke-dasharray:none;stroke-dashoffset:0"
       id="rect6360"
       width="240"
       height="40"
       x="-240"
       y="212.36218" />
    <rect
       y="212.36218"
       x="0"
       height="40"
       width="60"
       id="rect6362"
       style="fill:#ff6600;fill-opacity:1;stroke:#000000;stroke-width:2.5;stroke-miterlimit:4;stroke-opacity:1;stroke-dasharray:none;stroke-dashoffset:0" />
    <rect
       y="212.47659"
       x="60.114407"
       height="39.771187"
       width="299.77118"
       id="rect6364"
       style="fill:#ffffff;fill-opacity:1;stroke:#000000;stroke-width:2.5;stroke-miterlimit:4;stroke-opacity:1;stroke-dasharray:none;stroke-dashoffset:0" />
    <rect
       style="fill:#ff6600;fill-opacity:1;stroke:#000000;stroke-width:2.5;stroke-miterlimit:4;stroke-opacity:1;stroke-dasharray:none;stroke-dashoffset:0"
       id="rect6366"
       width="60"
       height="40"
       x="360"
       y="212.36218" />
    <rect
       style="fill:#ffffff;fill-opacity:1;stroke:#000000;stroke-width:2.5;stroke-miterlimit:4;stroke-opacity:1;stroke-dasharray:none;stroke-dashoffset:0"
       id="rect6368"
       width="359.56531"
       height="39.565327"
       x="420.21735"
       y="212.57953" />
    <rect
       y="212.36218"
       x="780"
       height="40"
       width="60"
       id="rect6370"
       style="fill:#ff6600;fill-opacity:1;stroke:#000000;stroke-width:2.5;stroke-miterlimit:4;stroke-opacity:1;stroke-dasharray:none;stroke-dashoffset:0" />
    <rect
       y="472.36218"
       x="510"
       height="20"
       width="20"
       id="rect6378"
       style="fill:#ff0000;fill-opacity:1;stroke:#000000;stroke-width:1;stroke-miterlimit:4;stroke-opacity:1;stroke-dasharray:none;stroke-dashoffset:0" />
    <path
       style="fill:#ff6600;stroke:#000000;stroke-width:1px;stroke-linecap:butt;stroke-linejoin:miter;stroke-opacity:1"
       d="m 900,482.36218 c 0,0 91.8798,-107.83351 110,-95 18.1202,12.83352 -12.7537,12.4331 -5,20 7.7537,7.56691 32.6312,-8.44189 40,0 7.3688,8.4419 -24.0124,14.83755 -20,25 4.0124,10.16246 28.9212,-6.6069 30,5 1.0788,11.60691 -25.3506,8.0685 -25,20 0.3506,11.9315 50.4828,3.39311 50,15 -0.4828,11.6069 -27.816,3.42524 -30,15 -2.184,11.57476 54.8257,19.47617 50,30 -4.8257,10.52383 -45.1743,-0.52383 -50,10 -4.8257,10.52383 46.2248,4.32534 30,30 -16.2248,25.67467 -180,-75 -180,-75 z"
       id="path6380"
       inkscape:connector-curvature="0"
       sodipodi:nodetypes="czzzzzzzzzzzc" />
    <rect
       style="fill:#ff0000;fill-opacity:1;stroke:#000000;stroke-width:1;stroke-miterlimit:4;stroke-opacity:1;stroke-dasharray:none;stroke-dashoffset:0"
       id="rect6382"
       width="20"
       height="20"
       x="890"
       y="472.36218" />
    <text
       xml:space="preserve"
       style="font-size:40px;font-style:normal;font-weight:normal;line-height:125%;letter-spacing:0px;word-spacing:0px;fill:#ff6600;fill-opacity:1;stroke:none;font-family:Sans"
       x="670"
       y="432.36218"
       id="text6386"
       sodipodi:linespacing="125%"><tspan
         sodipodi:role="line"
         id="tspan6388"
         x="670"
         y="432.36218"
         style="font-size:24px;fill:#ff6600">collector</tspan></text>
    <path
       style="fill:none;stroke:#ff6600;stroke-width:2;stroke-linecap:butt;stroke-linejoin:miter;stroke-opacity:1;marker-end:url(#Arrow1Lend);stroke-miterlimit:4;stroke-dasharray:none"
       d="m 520,482.36218 c 0,0 15.86331,-22.42151 30,-20 14.13669,2.42151 13.33333,40 30,40 16.66667,0 13.33333,-40 30,-40 16.66667,0 13.33333,40 30,40 16.66667,0 13.33333,-40 30,-40 16.66667,0 13.33333,40 30,40 16.66667,0 13.33333,-40 30,-40 16.66667,0 13.33333,40 30,40 16.66667,0 13.33333,-40 30,-40 16.66667,0 14.2769,41.41775 30,40 15.7231,-1.41775 5.09288,-40 20,-40 14.90712,0 8.81966,40 20,40 11.18034,0 3.99431,-16.28828 10,-20 6.00569,-3.71172 20,0 20,0"
       id="path6390"
       inkscape:connector-curvature="0"
       sodipodi:nodetypes="czzzzzzzzzzzzzc" />
    <rect
       style="fill:#ff6600;fill-opacity:1;stroke:#000000;stroke-width:2;stroke-miterlimit:4;stroke-opacity:1;stroke-dasharray:none;stroke-dashoffset:0"
       id="rect3046"
       width="320"
       height="40"
       x="520"
       y="532.36218" />
    <rect
       style="fill:#ffffff;fill-opacity:1;stroke:#000000;stroke-width:2;stroke-miterlimit:4;stroke-opacity:1;stroke-dasharray:none;stroke-dashoffset:0"
       id="rect3828"
       width="820"
       height="40"
       x="-300"
       y="532.36218" />
    <text
       xml:space="preserve"
       style="font-size:40px;font-style:normal;font-weight:normal;line-height:125%;letter-spacing:0px;word-spacing:0px;fill:#000000;fill-opacity:1;stroke:none;font-family:Sans"
       x="-292.94424"
       y="338.78839"
       id="text4493"
       sodipodi:linespacing="125%"><tspan
         sodipodi:role="line"
         id="tspan4495"
         x="-292.94424"
         y="338.78839">インクリメンタルGC</tspan></text>
    <text
       sodipodi:linespacing="125%"
       id="text4497"
       y="618.78839"
       x="-292.94424"
       style="font-size:40px;font-style:normal;font-weight:normal;line-height:125%;letter-spacing:0px;word-spacing:0px;fill:#000000;fill-opacity:1;stroke:none;font-family:Sans"
       xml:space="preserve"><tspan
         y="618.78839"
         x="-292.94424"
         id="tspan4499"
         sodipodi:role="line">通常の(stop-the-world)GC</tspan></text>
    <text
       sodipodi:linespacing="125%"
       id="text4501"
       y="277.36218"
       x="-310"
       style="font-size:40px;font-style:normal;font-weight:normal;line-height:125%;letter-spacing:0px;word-spacing:0px;fill:#ff6600;fill-opacity:1;stroke:none;font-family:Sans"
       xml:space="preserve"><tspan
         style="font-size:24px;fill:#ff6600"
         y="277.36218"
         x="-310"
         id="tspan4503"
         sodipodi:role="line">collector</tspan></text>
    <text
       sodipodi:linespacing="125%"
       id="text4505"
       y="277.36218"
       x="-150"
       style="font-size:40px;font-style:normal;font-weight:normal;line-height:125%;letter-spacing:0px;word-spacing:0px;fill:#000000;fill-opacity:1;stroke:none;font-family:Sans"
       xml:space="preserve"><tspan
         style="font-size:24px"
         y="277.36218"
         x="-150"
         id="tspan4507"
         sodipodi:role="line">mutator</tspan></text>
    <path
       style="fill:none;stroke:#000000;stroke-width:1px;stroke-linecap:butt;stroke-linejoin:miter;stroke-opacity:1;marker-end:url(#Arrow1Lend)"
       d="m -320,372.36218 1440,0"
       id="path4509"
       inkscape:connector-curvature="0" />
    <text
       xml:space="preserve"
       style="font-size:40px;font-style:normal;font-weight:normal;line-height:125%;letter-spacing:0px;word-spacing:0px;fill:#000000;fill-opacity:1;stroke:none;font-family:Sans"
       x="1157.8379"
       y="375.55997"
       id="text5215"
       sodipodi:linespacing="125%"><tspan
         sodipodi:role="line"
         id="tspan5217"
         x="1157.8379"
         y="375.55997"
         style="font-style:italic">t</tspan></text>
    <path
       style="fill:none;stroke:#ff0000;stroke-width:10;stroke-linecap:butt;stroke-linejoin:miter;stroke-miterlimit:4;stroke-opacity:1;stroke-dasharray:none"
       d="m -300,532.36218 0,40"
       id="path3529"
       inkscape:connector-curvature="0" />
    <path
       inkscape:connector-curvature="0"
       id="path4311"
       d="m -300,212.36218 0,40"
       style="fill:none;stroke:#ff0000;stroke-width:10;stroke-linecap:butt;stroke-linejoin:miter;stroke-miterlimit:4;stroke-opacity:1;stroke-dasharray:none" />
    <path
       inkscape:connector-curvature="0"
       id="path4313"
       d="m -200,532.36218 0,40"
       style="fill:none;stroke:#ff0000;stroke-width:10;stroke-linecap:butt;stroke-linejoin:miter;stroke-miterlimit:4;stroke-opacity:1;stroke-dasharray:none" />
    <path
       style="fill:none;stroke:#ff0000;stroke-width:10;stroke-linecap:butt;stroke-linejoin:miter;stroke-miterlimit:4;stroke-opacity:1;stroke-dasharray:none"
       d="m -200,212.36218 0,40"
       id="path4315"
       inkscape:connector-curvature="0" />
    <path
       style="fill:none;stroke:#ff0000;stroke-width:10;stroke-linecap:butt;stroke-linejoin:miter;stroke-miterlimit:4;stroke-opacity:1;stroke-dasharray:none"
       d="m -120,532.36218 0,40"
       id="path4317"
       inkscape:connector-curvature="0" />
    <path
       inkscape:connector-curvature="0"
       id="path4319"
       d="m -120,212.36218 0,40"
       style="fill:none;stroke:#ff0000;stroke-width:10;stroke-linecap:butt;stroke-linejoin:miter;stroke-miterlimit:4;stroke-opacity:1;stroke-dasharray:none" />
    <path
       inkscape:connector-curvature="0"
       id="path4321"
       d="m -60,532.36218 0,40"
       style="fill:none;stroke:#ff0000;stroke-width:10;stroke-linecap:butt;stroke-linejoin:miter;stroke-miterlimit:4;stroke-opacity:1;stroke-dasharray:none" />
    <path
       style="fill:none;stroke:#ff0000;stroke-width:10;stroke-linecap:butt;stroke-linejoin:miter;stroke-miterlimit:4;stroke-opacity:1;stroke-dasharray:none"
       d="m -60,212.36218 0,40"
       id="path4323"
       inkscape:connector-curvature="0" />
    <path
       style="fill:none;stroke:#ff0000;stroke-width:10;stroke-linecap:butt;stroke-linejoin:miter;stroke-miterlimit:4;stroke-opacity:1;stroke-dasharray:none"
       d="m 0,532.36218 0,40"
       id="path4325"
       inkscape:connector-curvature="0" />
    <path
       inkscape:connector-curvature="0"
       id="path4327"
       d="m 0,212.36218 0,40"
       style="fill:none;stroke:#ff0000;stroke-width:10;stroke-linecap:butt;stroke-linejoin:miter;stroke-miterlimit:4;stroke-opacity:1;stroke-dasharray:none" />
    <path
       inkscape:connector-curvature="0"
       id="path4329"
       d="m 120,532.36218 0,40"
       style="fill:none;stroke:#ff0000;stroke-width:10;stroke-linecap:butt;stroke-linejoin:miter;stroke-miterlimit:4;stroke-opacity:1;stroke-dasharray:none" />
    <path
       style="fill:none;stroke:#ff0000;stroke-width:10;stroke-linecap:butt;stroke-linejoin:miter;stroke-miterlimit:4;stroke-opacity:1;stroke-dasharray:none"
       d="m 120,212.36218 0,40"
       id="path4331"
       inkscape:connector-curvature="0" />
    <path
       style="fill:none;stroke:#ff0000;stroke-width:10;stroke-linecap:butt;stroke-linejoin:miter;stroke-miterlimit:4;stroke-opacity:1;stroke-dasharray:none"
       d="m 200,532.36218 0,40"
       id="path4333"
       inkscape:connector-curvature="0" />
    <path
       inkscape:connector-curvature="0"
       id="path4335"
       d="m 200,212.36218 0,40"
       style="fill:none;stroke:#ff0000;stroke-width:10;stroke-linecap:butt;stroke-linejoin:miter;stroke-miterlimit:4;stroke-opacity:1;stroke-dasharray:none" />
    <path
       inkscape:connector-curvature="0"
       id="path4337"
       d="m 260,532.36218 0,40"
       style="fill:none;stroke:#ff0000;stroke-width:10;stroke-linecap:butt;stroke-linejoin:miter;stroke-miterlimit:4;stroke-opacity:1;stroke-dasharray:none" />
    <path
       style="fill:none;stroke:#ff0000;stroke-width:10;stroke-linecap:butt;stroke-linejoin:miter;stroke-miterlimit:4;stroke-opacity:1;stroke-dasharray:none"
       d="m 260,212.36218 0,40"
       id="path4339"
       inkscape:connector-curvature="0" />
    <path
       style="fill:none;stroke:#ff0000;stroke-width:10;stroke-linecap:butt;stroke-linejoin:miter;stroke-miterlimit:4;stroke-opacity:1;stroke-dasharray:none"
       d="m 360,532.36218 0,40"
       id="path4341"
       inkscape:connector-curvature="0" />
    <path
       inkscape:connector-curvature="0"
       id="path4343"
       d="m 360,212.36218 0,40"
       style="fill:none;stroke:#ff0000;stroke-width:4;stroke-linecap:butt;stroke-linejoin:miter;stroke-miterlimit:4;stroke-opacity:1;stroke-dasharray:none" />
    <path
       inkscape:connector-curvature="0"
       id="path4345"
       d="m 460,532.36218 0,40"
       style="fill:none;stroke:#ff0000;stroke-width:10;stroke-linecap:butt;stroke-linejoin:miter;stroke-miterlimit:4;stroke-opacity:1;stroke-dasharray:none" />
    <path
       style="fill:none;stroke:#ff0000;stroke-width:10;stroke-linecap:butt;stroke-linejoin:miter;stroke-miterlimit:4;stroke-opacity:1;stroke-dasharray:none"
       d="m 460,212.36218 0,40"
       id="path4347"
       inkscape:connector-curvature="0" />
    <path
       style="fill:none;stroke:#ff0000;stroke-width:10;stroke-linecap:butt;stroke-linejoin:miter;stroke-miterlimit:4;stroke-opacity:1;stroke-dasharray:none"
       d="m 520,532.36218 0,40"
       id="path4349"
       inkscape:connector-curvature="0" />
    <path
       inkscape:connector-curvature="0"
       id="path4351"
       d="m 780,212.36218 0,40"
       style="fill:none;stroke:#ff0000;stroke-width:8;stroke-linecap:butt;stroke-linejoin:miter;stroke-miterlimit:4;stroke-opacity:1;stroke-dasharray:none" />
    <text
       xml:space="preserve"
       style="font-size:16px;font-style:normal;font-weight:normal;line-height:125%;letter-spacing:0px;word-spacing:0px;fill:#000000;fill-opacity:1;stroke:none;font-family:Sans"
       x="-231.33002"
       y="470.71738"
       id="text4353"
       sodipodi:linespacing="125%"><tspan
         sodipodi:role="line"
         id="tspan4355"
         x="-231.33002"
         y="470.71738"
         style="font-size:24px;fill:#ff0000">allocation</tspan></text>
    <path
       style="fill:none;stroke:#ff0000;stroke-width:2.5;stroke-linecap:butt;stroke-linejoin:miter;stroke-opacity:1;stroke-miterlimit:4;stroke-dasharray:none"
       d="m -300,532.36218 80,-60"
       id="path4357"
       inkscape:connector-curvature="0" />
    <path
       style="fill:none;stroke:#ff0000;stroke-width:2.5;stroke-linecap:butt;stroke-linejoin:miter;stroke-opacity:1;stroke-miterlimit:4;stroke-dasharray:none"
       d="m -200,532.36218 0,-60"
       id="path4359"
       inkscape:connector-curvature="0" />
  </g>
</svg>
